<svg width="13" height="15" viewBox="0 0 13 15" fill="none" xmlns="http://www.w3.org/2000/svg">
<g clip-path="url(#clip0)">
<path d="M6.32875 1.11633L5.75423 1.69638C5.61825 1.83367 5.61825 2.05626 5.75423 2.19358L10.2558 6.73837H0.348173C0.155871 6.73837 -4.17403e-05 6.89579 -4.17403e-05 7.08994V7.91025C-4.17403e-05 8.1044 0.155871 8.26181 0.348173 8.26181H10.2558L5.75423 12.8066C5.61825 12.9439 5.61825 13.1665 5.75423 13.3038L6.32875 13.8839C6.46473 14.0211 6.68521 14.0211 6.82122 13.8839L12.898 7.74868C13.0339 7.61139 13.0339 7.38879 12.898 7.25148L6.82122 1.1163C6.68524 0.979018 6.46476 0.979018 6.32875 1.11633Z" fill="black"/>
</g>
<defs>
<clipPath id="clip0">
<rect width="13" height="15" fill="white" transform="translate(13 15) rotate(-180)"/>
</clipPath>
</defs>
</svg>
