<svg width="13" height="15" viewBox="0 0 13 15" fill="none" xmlns="http://www.w3.org/2000/svg">
<g clip-path="url(#clip0)">
<path d="M6.67125 13.8837L7.24577 13.3036C7.38175 13.1663 7.38175 12.9437 7.24577 12.8064L2.74423 8.26163H12.6518C12.8441 8.26163 13 8.10421 13 7.91006V7.08975C13 6.8956 12.8441 6.73819 12.6518 6.73819H2.74423L7.24577 2.19336C7.38175 2.05608 7.38175 1.83348 7.24577 1.69617L6.67125 1.11615C6.53527 0.978862 6.31479 0.978862 6.17879 1.11615L0.10204 7.25132C-0.0339372 7.38861 -0.0339372 7.61121 0.10204 7.74852L6.17879 13.8837C6.31476 14.021 6.53524 14.021 6.67125 13.8837Z" fill="black"/>
</g>
<defs>
<clipPath id="clip0">
<rect width="13" height="15" fill="white"/>
</clipPath>
</defs>
</svg>
