<svg width="46" height="40" viewBox="0 0 46 40" fill="none" xmlns="http://www.w3.org/2000/svg">
<g clip-path="url(#clip0)">
<path d="M23.7239 27.5861L24.4752 26.8513C24.6531 26.6774 24.6531 26.3955 24.4752 26.2215L18.5886 20.4648H31.5447C31.7962 20.4648 32.0001 20.2654 32.0001 20.0195V18.9804C32.0001 18.7345 31.7962 18.5351 31.5447 18.5351H18.5886L24.4752 12.7783C24.6531 12.6044 24.6531 12.3225 24.4752 12.1486L23.7239 11.4139C23.5461 11.24 23.2578 11.24 23.08 11.4139L15.1334 19.1851C14.9556 19.359 14.9556 19.6409 15.1334 19.8149L23.08 27.5861C23.2578 27.76 23.5461 27.76 23.7239 27.5861Z" fill="#2F80ED"/>
</g>
<mask id="path-2-inside-1" fill="white">
<path d="M0 16.1C0 10.4051 0 7.55764 1.12587 5.39026C2.07462 3.56382 3.56382 2.07462 5.39026 1.12587C7.55764 0 10.4051 0 16.1 0H29.9C35.5949 0 38.4424 0 40.6097 1.12587C42.4362 2.07462 43.9254 3.56382 44.8741 5.39026C46 7.55764 46 10.4051 46 16.1V23.9C46 29.5949 46 32.4424 44.8741 34.6097C43.9254 36.4362 42.4362 37.9254 40.6097 38.8741C38.4424 40 35.5949 40 29.9 40H16.1C10.4051 40 7.55764 40 5.39026 38.8741C3.56382 37.9254 2.07462 36.4362 1.12587 34.6097C0 32.4424 0 29.5949 0 23.9V16.1Z"/>
</mask>
<path d="M5.39026 38.8741L6.08172 37.543L5.39026 38.8741ZM1.12587 34.6097L2.45699 33.9183L1.12587 34.6097ZM44.8741 34.6097L43.543 33.9183L44.8741 34.6097ZM40.6097 38.8741L39.9183 37.543L40.6097 38.8741ZM40.6097 1.12587L39.9183 2.45699L40.6097 1.12587ZM44.8741 5.39026L43.543 6.08172L44.8741 5.39026ZM5.39026 1.12587L6.08172 2.45699L5.39026 1.12587ZM1.12587 5.39026L2.45699 6.08172L1.12587 5.39026ZM16.1 1.5H29.9V-1.5H16.1V1.5ZM44.5 16.1V23.9H47.5V16.1H44.5ZM29.9 38.5H16.1V41.5H29.9V38.5ZM1.5 23.9V16.1H-1.5V23.9H1.5ZM16.1 38.5C13.2274 38.5 11.1646 38.4988 9.54645 38.3644C7.94623 38.2315 6.91562 37.9762 6.08172 37.543L4.69879 40.2053C6.03228 40.8979 7.50908 41.2055 9.29817 41.3541C11.0693 41.5012 13.2777 41.5 16.1 41.5V38.5ZM-1.5 23.9C-1.5 26.7223 -1.50121 28.9307 -1.35412 30.7018C-1.20555 32.4909 -0.897944 33.9677 -0.205255 35.3012L2.45699 33.9183C2.02381 33.0844 1.76848 32.0538 1.63559 30.4536C1.50121 28.8354 1.5 26.7726 1.5 23.9H-1.5ZM6.08172 37.543C4.52925 36.7366 3.26343 35.4708 2.45699 33.9183L-0.205255 35.3012C0.885814 37.4016 2.5984 39.1142 4.69879 40.2053L6.08172 37.543ZM44.5 23.9C44.5 26.7726 44.4988 28.8354 44.3644 30.4536C44.2315 32.0538 43.9762 33.0844 43.543 33.9183L46.2053 35.3012C46.8979 33.9677 47.2055 32.4909 47.3541 30.7018C47.5012 28.9307 47.5 26.7223 47.5 23.9H44.5ZM29.9 41.5C32.7223 41.5 34.9307 41.5012 36.7018 41.3541C38.4909 41.2055 39.9677 40.8979 41.3012 40.2053L39.9183 37.543C39.0844 37.9762 38.0538 38.2315 36.4536 38.3644C34.8354 38.4988 32.7726 38.5 29.9 38.5V41.5ZM43.543 33.9183C42.7366 35.4708 41.4708 36.7366 39.9183 37.543L41.3012 40.2053C43.4016 39.1142 45.1142 37.4016 46.2053 35.3012L43.543 33.9183ZM29.9 1.5C32.7726 1.5 34.8354 1.50121 36.4536 1.63559C38.0538 1.76848 39.0844 2.02381 39.9183 2.45699L41.3012 -0.205255C39.9677 -0.897944 38.4909 -1.20555 36.7018 -1.35412C34.9307 -1.50121 32.7223 -1.5 29.9 -1.5V1.5ZM47.5 16.1C47.5 13.2777 47.5012 11.0693 47.3541 9.29817C47.2055 7.50908 46.8979 6.03228 46.2053 4.69879L43.543 6.08172C43.9762 6.91562 44.2315 7.94623 44.3644 9.54645C44.4988 11.1646 44.5 13.2274 44.5 16.1H47.5ZM39.9183 2.45699C41.4708 3.26343 42.7366 4.52925 43.543 6.08172L46.2053 4.69879C45.1142 2.5984 43.4016 0.885814 41.3012 -0.205255L39.9183 2.45699ZM16.1 -1.5C13.2777 -1.5 11.0693 -1.50121 9.29817 -1.35412C7.50908 -1.20555 6.03228 -0.897944 4.69879 -0.205255L6.08172 2.45699C6.91562 2.02381 7.94623 1.76848 9.54645 1.63559C11.1646 1.50121 13.2274 1.5 16.1 1.5V-1.5ZM1.5 16.1C1.5 13.2274 1.50121 11.1646 1.63559 9.54645C1.76848 7.94623 2.02381 6.91562 2.45699 6.08172L-0.205255 4.69879C-0.897944 6.03228 -1.20555 7.50908 -1.35412 9.29817C-1.50121 11.0693 -1.5 13.2777 -1.5 16.1H1.5ZM4.69879 -0.205255C2.5984 0.885814 0.885814 2.5984 -0.205255 4.69879L2.45699 6.08172C3.26343 4.52925 4.52925 3.26343 6.08172 2.45699L4.69879 -0.205255Z" fill="#2F80ED" mask="url(#path-2-inside-1)"/>
<defs>
<clipPath id="clip0">
<rect width="17" height="19" fill="white" transform="translate(15 10)"/>
</clipPath>
</defs>
</svg>
