<svg width="100" height="100" viewBox="0 0 100 100" fill="none" xmlns="http://www.w3.org/2000/svg">
<rect width="100" height="100" fill="white"/>
<path d="M11.0431 71.6387C9.03443 71.6387 7.1824 71.1457 5.487 70.1598C3.80082 69.1831 2.46477 67.8517 1.47886 66.1655C0.492955 64.4701 0 62.6088 0 60.5817C0 58.5915 0.474527 56.7533 1.42358 55.0671C2.38185 53.3809 3.70407 52.0449 5.39025 51.059C7.07644 50.0638 8.96072 49.5663 11.0431 49.5663C13.1255 49.5663 15.0052 50.0638 16.6821 51.059C18.3683 52.0449 19.6906 53.3763 20.6488 55.0533C21.6071 56.721 22.0862 58.5224 22.0862 60.4574C22.0862 61.7565 21.8697 62.8162 21.4366 63.6362C21.0128 64.4563 20.4553 65.0506 19.7643 65.4192C19.0732 65.7785 18.3176 65.9582 17.4976 65.9582C16.8802 65.9582 16.3735 65.9351 15.9773 65.8891C15.5811 65.843 15.1756 65.7186 14.761 65.5159C14.3464 65.304 13.9548 64.9769 13.5862 64.5346H13.3374C12.9228 65.0506 12.4022 65.4468 11.7756 65.7232C11.1583 65.9904 10.5087 66.124 9.82685 66.124C9.19107 66.124 8.58755 66.0089 8.01628 65.7785C7.45421 65.5481 6.99812 65.2118 6.64798 64.7696C6.30706 64.3273 6.1366 63.7975 6.1366 63.1801C6.1366 62.2311 6.48213 61.5262 7.17318 61.0655C7.86424 60.5956 8.71194 60.227 9.71628 59.9598L12.5082 59.2135V58.8265C12.5082 58.3842 12.393 58.0801 12.1626 57.9143C11.9415 57.7484 11.6052 57.6655 11.1537 57.6655C10.6377 57.6655 10.2369 57.7714 9.95124 57.9834C9.6656 58.1861 9.4721 58.5685 9.37075 59.1305L6.17806 58.398C6.41763 57.4582 6.96126 56.7256 7.80896 56.2004C8.66587 55.666 9.78078 55.3988 11.1537 55.3988C12.4897 55.3988 13.6138 55.6937 14.526 56.2834C15.4475 56.8731 15.9082 57.9189 15.9082 59.4208V61.5354C15.9082 62.2265 16.0326 62.724 16.2813 63.0281C16.5301 63.3229 16.954 63.4704 17.5529 63.4704C18.1426 63.4704 18.5849 63.2815 18.8797 62.9037C19.1838 62.5167 19.3358 61.8164 19.3358 60.8029C19.3358 59.2273 18.9811 57.7945 18.2716 56.5045C17.5621 55.2145 16.5762 54.201 15.3139 53.4639C14.0607 52.7175 12.6464 52.3443 11.0708 52.3443C9.48593 52.3443 8.06235 52.7129 6.80001 53.45C5.53768 54.1872 4.55177 55.1869 3.84228 56.4492C3.1328 57.7023 2.77805 59.0706 2.77805 60.5541C2.77805 62.0836 3.14662 63.4888 3.88375 64.7696C4.63009 66.0411 5.63443 67.05 6.89676 67.7964C8.16831 68.5335 9.55964 68.9021 11.0708 68.9021C12.7017 68.9021 14.2588 68.4368 15.7423 67.5061L17.0139 69.911C16.1569 70.4639 15.2171 70.8877 14.1943 71.1826C13.1716 71.4866 12.1212 71.6387 11.0431 71.6387ZM10.5594 63.7744C10.8819 63.7744 11.2182 63.7145 11.5683 63.5948C11.9185 63.475 12.2179 63.2584 12.4667 62.9452C12.7247 62.6319 12.8537 62.2126 12.8537 61.6874V61.0931L10.9325 61.6874C10.3705 61.8533 9.9927 62.0284 9.79921 62.2126C9.60571 62.3969 9.50896 62.6273 9.50896 62.9037C9.50896 63.1709 9.58728 63.3828 9.74392 63.5395C9.90056 63.6961 10.1724 63.7744 10.5594 63.7744Z" fill="#2F80ED"/>
<path d="M24.2887 29.1959C24.5282 28.772 24.883 28.3758 25.3529 28.0073C25.832 27.6387 26.3803 27.3438 26.9976 27.1227C27.6242 26.8923 28.2692 26.7772 28.9326 26.7772V30.3292C27.8914 30.3292 27.0483 30.449 26.4033 30.6886C25.7583 30.9189 25.2746 31.3197 24.9521 31.891C24.6388 32.4531 24.4822 33.2317 24.4822 34.2268V41.1512H20.474V26.943H24.2887V29.1959Z" fill="black"/>
<path d="M46.2212 34.7934H35.6895C35.7448 35.5582 35.9383 36.2032 36.27 36.7284C36.6017 37.2536 37.0301 37.6452 37.5553 37.9032C38.0898 38.1612 38.6795 38.2902 39.3244 38.2902C40.0431 38.2902 40.6651 38.129 41.1903 37.8065C41.7247 37.4748 42.1255 36.9956 42.3927 36.3691L46.0415 36.9081C45.7282 37.8571 45.2491 38.6726 44.6041 39.3544C43.9684 40.0271 43.199 40.5431 42.296 40.9024C41.393 41.2525 40.4117 41.4276 39.3521 41.4276C37.8225 41.4276 36.4865 41.1374 35.3439 40.5569C34.2014 39.9672 33.3168 39.1195 32.6903 38.0138C32.0729 36.9081 31.7643 35.5859 31.7643 34.0471C31.7643 32.5176 32.0775 31.1953 32.7041 30.0804C33.3399 28.9655 34.2198 28.1132 35.3439 27.5235C36.4681 26.9338 37.7626 26.639 39.2277 26.639C40.6098 26.639 41.8261 26.9016 42.8765 27.4268C43.9269 27.9428 44.7516 28.7398 45.3505 29.8178C45.9586 30.8867 46.2627 32.2273 46.2627 33.8398L46.2212 34.7934ZM39.2553 29.4585C38.3247 29.4585 37.5645 29.6842 36.9748 30.1357C36.3851 30.5872 35.9935 31.2737 35.8 32.1951H42.3236C42.2223 31.3105 41.8952 30.6333 41.3423 30.1634C40.7895 29.6934 40.0938 29.4585 39.2553 29.4585Z" fill="black"/>
<path d="M62.6391 37.2951C62.6391 38.8062 62.7543 39.9626 62.9846 40.7642V41.1512L59.1488 41.2286L58.9488 39.6032C58.4421 40.2113 57.7786 40.6674 56.9586 40.9715C56.1385 41.2756 55.2816 41.4276 54.3879 41.4276C53.5862 41.4276 52.8537 41.2986 52.1903 41.0406C51.5269 40.7734 50.9878 40.3496 50.5732 39.7691C50.1678 39.1794 49.9651 38.4146 49.9651 37.4748C49.9651 36.5349 50.177 35.7655 50.6009 35.1666C51.0339 34.5677 51.619 34.0978 52.3561 33.7569C53.1025 33.4159 54.0285 33.1257 55.1342 32.8861L57.47 32.3609C57.9675 32.2411 58.3177 32.0937 58.5204 31.9186C58.7323 31.7344 58.8383 31.4948 58.8383 31.1999C58.8383 30.5642 58.6033 30.1081 58.1334 29.8317C57.6727 29.5552 57.1106 29.417 56.4472 29.417C54.8163 29.417 53.8903 30.1403 53.6692 31.5869L50.1448 30.9512C50.4396 29.4861 51.1261 28.4081 52.2041 27.717C53.2822 27.0167 54.7702 26.6666 56.6683 26.6666C60.6488 26.6666 62.6391 28.3758 62.6391 31.7943V37.2951ZM55.6318 38.7325C56.286 38.7325 56.8665 38.5851 57.3732 38.2902C57.8892 37.9954 58.2946 37.5439 58.5895 36.9357C58.8936 36.3184 59.0456 35.5582 59.0456 34.6552L55.6732 35.6089C55.0559 35.7563 54.5814 35.9498 54.2496 36.1894C53.9271 36.429 53.7659 36.7699 53.7659 37.2122C53.7659 37.7005 53.941 38.0783 54.2911 38.3455C54.6412 38.6035 55.0881 38.7325 55.6318 38.7325Z" fill="black"/>
<path d="M68.2212 19.9219H72.2431V41.1512L68.2529 41.2286L68.2212 19.9219Z" fill="black"/>
<path d="M27.1112 59.2233C28.3459 59.2233 29.47 59.5182 30.4836 60.1079C31.4971 60.6976 32.2987 61.5453 32.8884 62.651C33.4874 63.7567 33.7868 65.0467 33.7868 66.5209C33.7868 67.9952 33.4874 69.2851 32.8884 70.3908C32.2987 71.4965 31.4971 72.3442 30.4836 72.9339C29.47 73.5236 28.3459 73.8185 27.1112 73.8185C26.1345 73.8185 25.2453 73.6158 24.4437 73.2104C23.6421 72.8049 23.034 72.2475 22.6193 71.538V80.3974H19.164V59.4998H22.4535L22.5502 61.6282C22.9556 60.8727 23.5638 60.283 24.3746 59.8591C25.1855 59.4353 26.0976 59.2233 27.1112 59.2233ZM26.351 70.9299C27.0882 70.9299 27.7562 70.7548 28.3551 70.4047C28.9632 70.0453 29.4424 69.5339 29.7925 68.8705C30.1519 68.1979 30.3315 67.4147 30.3315 66.5209C30.3315 65.6271 30.1519 64.8486 29.7925 64.1851C29.4424 63.5217 28.9632 63.0149 28.3551 62.6648C27.7562 62.3055 27.0882 62.1258 26.351 62.1258C25.6047 62.1258 24.9228 62.3147 24.3055 62.6925C23.6974 63.061 23.2182 63.5816 22.8681 64.2542C22.518 64.9177 22.3429 65.6732 22.3429 66.5209C22.3429 67.3778 22.518 68.1426 22.8681 68.8152C23.2182 69.4786 23.6974 69.9992 24.3055 70.377C24.9228 70.7456 25.6047 70.9299 26.351 70.9299Z" fill="black"/>
<path d="M50.1577 67.129H39.5983C39.6444 67.9675 39.8425 68.6816 40.1927 69.2713C40.552 69.8518 41.0173 70.2895 41.5886 70.5843C42.1599 70.87 42.7956 71.0128 43.4959 71.0128C44.2515 71.0128 44.9149 70.8331 45.4862 70.4738C46.0666 70.1144 46.5089 69.5984 46.813 68.9258L49.9642 69.4372C49.6509 70.3402 49.181 71.1188 48.5545 71.773C47.9279 72.4179 47.1816 72.9155 46.3154 73.2656C45.4585 73.6066 44.5279 73.777 43.5236 73.777C42.0585 73.777 40.7731 73.4914 39.6675 72.9201C38.571 72.3396 37.7187 71.5011 37.1105 70.4047C36.5116 69.3082 36.2122 68.009 36.2122 66.5071C36.2122 65.0052 36.5162 63.706 37.1244 62.6095C37.7417 61.5038 38.594 60.6607 39.6813 60.0803C40.7685 59.4998 42.0124 59.2095 43.413 59.2095C44.7398 59.2095 45.91 59.4675 46.9236 59.9835C47.9463 60.4995 48.748 61.2873 49.3284 62.3469C49.9089 63.3973 50.2038 64.7057 50.213 66.2721L50.1577 67.129ZM43.4268 61.6973C42.4317 61.6973 41.6116 61.9599 40.9666 62.4851C40.3217 63.0011 39.9024 63.7797 39.7089 64.8209H46.7854C46.6932 63.8074 46.3431 63.0334 45.7349 62.499C45.136 61.9645 44.3666 61.6973 43.4268 61.6973Z" fill="black"/>
<path d="M61.4977 59.2233C63.101 59.2233 64.3495 59.6472 65.2432 60.4949C66.137 61.3334 66.5839 62.5266 66.5839 64.0746V73.5006H63.1286V64.8209C63.1286 63.8626 62.8752 63.1578 62.3684 62.7063C61.8709 62.2548 61.2305 62.029 60.4473 62.029C59.5075 62.029 58.7335 62.3147 58.1253 62.8859C57.5264 63.4572 57.2224 64.351 57.2131 65.5673V73.5006H53.7579V59.4998H57.2131V61.1168C57.6923 60.5087 58.2958 60.0434 59.0237 59.7209C59.7608 59.3892 60.5855 59.2233 61.4977 59.2233Z" fill="black"/>
<path d="M78.7255 59.2233C80.3288 59.2233 81.5773 59.6472 82.471 60.4949C83.3648 61.3334 83.8117 62.5266 83.8117 64.0746V73.5006H80.3564V64.8209C80.3564 63.8626 80.103 63.1578 79.5962 62.7063C79.0987 62.2548 78.4583 62.029 77.6751 62.029C76.7353 62.029 75.9613 62.3147 75.3531 62.8859C74.7542 63.4572 74.4502 64.351 74.4409 65.5673V73.5006H70.9857V59.4998H74.4409V61.1168C74.9201 60.5087 75.5236 60.0434 76.2515 59.7209C76.9886 59.3892 77.8133 59.2233 78.7255 59.2233Z" fill="black"/>
<path d="M39.181 59.79C38.0201 59.79 37.1079 59.4537 36.4444 58.7811C35.781 58.1084 35.4493 57.0672 35.4493 55.6575V48.4566H33.4314V47.1436H34.3713C35.3572 47.1436 36.168 46.8442 36.8038 46.2453C37.4488 45.6371 37.7713 44.8401 37.7713 43.8542V42.6518H39.029V47.1436H42.8022V48.4566H39.029V55.1046C39.029 56.1735 39.1257 56.9428 39.3192 57.4128C39.522 57.8827 39.8859 58.1176 40.4111 58.1176C40.7889 58.1176 41.116 57.9886 41.3924 57.7306C41.6688 57.4727 41.8393 57.0718 41.9038 56.5282H42.9542C42.9266 57.0258 42.8206 57.4727 42.6363 57.8689C42.452 58.2651 42.2263 58.583 41.9591 58.8225C41.7011 59.0529 41.397 59.2418 41.0469 59.3892C40.706 59.5458 40.3835 59.6518 40.0794 59.7071C39.7753 59.7624 39.4759 59.79 39.181 59.79Z" fill="#2F80ED"/>
<path d="M47.8259 59.6241C47.2178 59.6241 46.6972 59.5412 46.2641 59.3754C45.831 59.2095 45.5085 58.9838 45.2966 58.6981C45.0847 58.4125 44.9327 58.1269 44.8405 57.8412C44.7576 57.5464 44.7161 57.2331 44.7161 56.9014C44.7161 56.413 44.8129 55.9661 45.0064 55.5607C45.1999 55.1553 45.4947 54.7821 45.8909 54.4412C46.2871 54.1003 46.7018 53.7962 47.1348 53.529C47.5771 53.2618 48.13 52.9716 48.7934 52.6583L52.1657 51.0412C52.1657 49.8157 52.0275 49.0095 51.7511 48.6225C51.4747 48.2355 50.8988 48.042 50.0235 48.042C49.5812 48.042 49.208 48.0973 48.9039 48.2079C48.5999 48.3184 48.3649 48.4843 48.1991 48.7054C48.0424 48.9174 47.9319 49.1016 47.8674 49.2583C47.8029 49.4057 47.7384 49.5992 47.6739 49.8388C47.508 50.7602 47.0058 51.2163 46.1674 51.2071C45.7159 51.1978 45.3749 51.0688 45.1446 50.8201C44.9142 50.5621 44.7991 50.2488 44.7991 49.8802C44.8543 49.0233 45.398 48.2816 46.43 47.655C47.4619 47.0285 48.9362 46.7152 50.8527 46.7152C51.8663 46.7152 52.7048 46.8027 53.3682 46.9778C54.0316 47.1529 54.5338 47.4293 54.8747 47.8071C55.2248 48.1756 55.4598 48.5903 55.5796 49.051C55.7086 49.5024 55.7731 50.0645 55.7731 50.7371V56.155C55.7731 56.7171 55.833 57.1548 55.9527 57.468C56.0725 57.7721 56.2983 57.9241 56.63 57.9241C57.1275 57.9241 57.4224 57.5003 57.5145 56.6526H58.5373C58.5004 57.6477 58.1964 58.3941 57.6251 58.8916C57.0538 59.38 56.3029 59.6241 55.3722 59.6241C54.5983 59.6241 53.9671 59.4491 53.4787 59.0989C52.9996 58.7488 52.6357 58.219 52.3869 57.5095C50.9218 58.9193 49.4015 59.6241 47.8259 59.6241ZM49.4706 57.8965C49.9221 57.8965 50.3828 57.7399 50.8527 57.4266C51.3319 57.1041 51.7787 56.6526 52.1934 56.0721L52.1796 52.4371L49.443 54.1371C48.5768 54.6716 48.1438 55.358 48.1438 56.1965C48.1438 56.7493 48.259 57.1732 48.4893 57.468C48.7289 57.7537 49.056 57.8965 49.4706 57.8965Z" fill="#2F80ED"/>
<path d="M59.0691 59.3477V58.0347H59.8155C60.3683 58.0347 60.7231 57.9057 60.8797 57.6477C61.0456 57.3897 61.1285 56.9567 61.1285 56.3485V44.0062C61.1285 43.4073 61.0409 42.9696 60.8659 42.6932C60.6908 42.4168 60.3315 42.3016 59.7878 42.3477L59.1488 42.4989V41.2285L64.722 40.1363V56.3485C64.722 57.4727 65.0445 58.0347 65.6895 58.0347H66.5187V59.3477H59.0691Z" fill="#2F80ED"/>
<path d="M68.3157 59.3477V58.0347H69.0621C69.6149 58.0347 69.9697 57.9057 70.1263 57.6477C70.2922 57.3897 70.3751 56.9567 70.3751 56.3485V44.0062C70.3751 43.4073 70.2876 42.9696 70.1125 42.6932C69.9374 42.4168 69.5781 42.3016 69.0344 42.3477L68.3157 42.4859L68.2743 41.1867L73.9686 40.1363V53.2111L77.8247 49.9632C78.3407 49.5117 78.6033 49.1523 78.6125 48.8851C78.6309 48.6087 78.3591 48.4659 77.7971 48.4566H77.341V47.1436H83.4637V48.4566H82.9247C82.4456 48.4566 82.0033 48.5488 81.5979 48.7331C81.1925 48.9174 80.7456 49.2352 80.2572 49.6867L78.5434 51.138L82.054 56.0306C82.3028 56.4084 82.4732 56.6664 82.5654 56.8046C82.6667 56.9428 82.8141 57.1363 83.0076 57.3851C83.2103 57.6339 83.3854 57.8044 83.5328 57.8965C83.6895 57.9886 83.8461 58.0347 84.0028 58.0347H84.5556V59.3477H77.5206V58.0347H78.3499C79.041 58.0347 79.0594 57.5372 78.4052 56.542L75.9588 53.0591L73.9686 54.842V56.3485C73.9686 57.4727 74.2911 58.0347 74.9361 58.0347H75.7653V59.3477H68.3157Z" fill="#2F80ED"/>
</svg>
