<svg width="180" height="30" viewBox="0 0 180 30" fill="none" xmlns="http://www.w3.org/2000/svg">
<path d="M0 15C0 10.3406 0 8.01088 0.761205 6.17317C1.77614 3.72288 3.72288 1.77614 6.17317 0.761205C8.01088 0 10.3406 0 15 0H165C169.659 0 171.989 0 173.827 0.761205C176.277 1.77614 178.224 3.72288 179.239 6.17317C180 8.01088 180 10.3406 180 15C180 19.6594 180 21.9891 179.239 23.8268C178.224 26.2771 176.277 28.2239 173.827 29.2388C171.989 30 169.659 30 165 30H15C10.3406 30 8.01088 30 6.17317 29.2388C3.72288 28.2239 1.77614 26.2771 0.761205 23.8268C0 21.9891 0 19.6594 0 15Z" fill="#2F80ED"/>
</svg>
