<svg width="19" height="19" viewBox="0 0 19 19" fill="none" xmlns="http://www.w3.org/2000/svg">
<g clip-path="url(#clip0)">
<path d="M18.7402 16.4264L15.0404 12.7266C14.8734 12.5596 14.6471 12.4668 14.4096 12.4668H13.8047C14.8289 11.1568 15.4375 9.50918 15.4375 7.7168C15.4375 3.45293 11.9826 -0.00195312 7.71875 -0.00195312C3.45488 -0.00195312 0 3.45293 0 7.7168C0 11.9807 3.45488 15.4355 7.71875 15.4355C9.51113 15.4355 11.1588 14.827 12.4688 13.8027V14.4076C12.4688 14.6451 12.5615 14.8715 12.7285 15.0385L16.4283 18.7383C16.7771 19.0871 17.3412 19.0871 17.6863 18.7383L18.7365 17.6881C19.0854 17.3393 19.0854 16.7752 18.7402 16.4264ZM7.71875 12.4668C5.09512 12.4668 2.96875 10.3441 2.96875 7.7168C2.96875 5.09316 5.09141 2.9668 7.71875 2.9668C10.3424 2.9668 12.4688 5.08945 12.4688 7.7168C12.4688 10.3404 10.3461 12.4668 7.71875 12.4668Z" fill="#2F80ED"/>
</g>
<defs>
<clipPath id="clip0">
<rect width="19" height="19" fill="white" transform="matrix(1 0 0 -1 0 19)"/>
</clipPath>
</defs>
</svg>
