<svg width="19" height="19" viewBox="0 0 19 19" fill="none" xmlns="http://www.w3.org/2000/svg">
<g clip-path="url(#clip0)">
<path d="M13.6077 12.3128L13.2919 12.7168H13.8047H14.4096C14.5817 12.7168 14.7442 12.7839 14.8637 12.9033L18.5625 16.6022C18.5627 16.6024 18.5628 16.6025 18.563 16.6027C18.8111 16.854 18.8109 17.2601 18.5597 17.5113L17.5095 18.5615L17.5086 18.5625C17.2619 18.8119 16.8568 18.8132 16.6051 18.5615L12.9053 14.8617C12.7858 14.7422 12.7188 14.5797 12.7188 14.4076V13.8027V13.2899L12.3148 13.6058C11.0473 14.5968 9.4535 15.1855 7.71875 15.1855C3.59295 15.1855 0.25 11.8426 0.25 7.7168C0.25 3.591 3.59295 0.248047 7.71875 0.248047C11.8445 0.248047 15.1875 3.591 15.1875 7.7168C15.1875 9.45155 14.5987 11.0454 13.6077 12.3128ZM2.71875 7.7168C2.71875 10.4823 4.95717 12.7168 7.71875 12.7168C10.4843 12.7168 12.7188 10.4784 12.7188 7.7168C12.7188 4.95125 10.4803 2.7168 7.71875 2.7168C4.95321 2.7168 2.71875 4.95522 2.71875 7.7168Z" fill="#2F80ED" stroke="white" stroke-width="0.5"/>
</g>
<defs>
<clipPath id="clip0">
<rect width="19" height="19" fill="white" transform="matrix(1 0 0 -1 0 19)"/>
</clipPath>
</defs>
</svg>
