<svg width="26" height="26" viewBox="0 0 26 26" fill="none" xmlns="http://www.w3.org/2000/svg">
<path d="M0 0H26V26H0V0Z" fill="white"/>
<path d="M16.5046 12.1053H14.0816V21.4148H11.9584V12.1053H10.085V10.5537H11.9584V7.70748C11.9584 6.51955 12.1832 5.70981 12.6037 5.19585C13.07 4.61401 13.8984 4.34733 15.0849 4.34733H16.746V5.89891H16.0175C15.5179 5.89891 14.8726 5.95225 14.473 6.46621C14.1357 6.9026 14.0816 7.4408 14.0816 7.92568V10.5537H16.6628L16.5046 12.1053Z" fill="#3B5998"/>
<path fill-rule="evenodd" clip-rule="evenodd" d="M14.7477 9.77788V7.93052C14.7477 7.09655 14.9059 6.67471 16.0175 6.67471H17.4121V3.57153H15.0849C12.2332 3.57153 11.2923 5.09403 11.2923 7.70748V9.77788H9.4189V12.8811H11.2923V22.1906H14.7477V12.8811H17.0957L17.4121 9.77788H14.7477ZM16.5046 12.1053L16.6628 10.5537H14.0816V7.92568C14.0816 7.4408 14.1357 6.9026 14.473 6.46621C14.8726 5.95225 15.5179 5.89891 16.0175 5.89891H16.746V4.34733H15.0849C13.8984 4.34733 13.07 4.61401 12.6037 5.19585C12.1832 5.70981 11.9584 6.51955 11.9584 7.70748V10.5537H10.085V12.1053H11.9584V21.4148H14.0816V12.1053H16.5046Z" fill="#3B5998"/>
</svg>
