<svg width="26" height="26" viewBox="0 0 26 26" fill="none" xmlns="http://www.w3.org/2000/svg">
<path d="M0 0H26V26H0V0Z" fill="white"/>
<path d="M23.3625 7.76042C22.6486 8.05833 21.8854 8.25952 21.0812 8.35238C21.9018 7.8881 22.5337 7.15298 22.8291 6.27857C22.0618 6.70804 21.2125 7.02143 20.3057 7.1878C19.5794 6.45655 18.5455 6 17.4048 6C15.2096 6 13.433 7.67917 13.433 9.74911C13.433 10.0432 13.4658 10.3295 13.5356 10.6042C10.2326 10.4494 7.30299 8.95595 5.34581 6.68482C5.00526 7.2381 4.80831 7.88423 4.80831 8.56905C4.80831 9.86905 5.51404 11.0182 6.58085 11.6914C5.92435 11.6759 5.30889 11.5057 4.77548 11.2232C4.77548 11.2387 4.77548 11.2542 4.77548 11.2696C4.77548 13.0881 6.14592 14.6009 7.96359 14.9452C7.63124 15.0304 7.27837 15.0768 6.9173 15.0768C6.66291 15.0768 6.41262 15.0536 6.17054 15.0071C6.67522 16.4967 8.14412 17.5801 9.88383 17.611C8.52571 18.617 6.81062 19.2167 4.94781 19.2167C4.62777 19.2167 4.31184 19.1973 4 19.1625C5.75202 20.2381 7.84049 20.8571 10.0808 20.8571C17.3966 20.8571 21.393 15.1426 21.393 10.1863C21.393 10.0238 21.3889 9.86131 21.3807 9.70268C22.1562 9.17262 22.8291 8.51488 23.3625 7.76042Z" fill="#1DA1F2"/>
</svg>
