<svg width="180" height="40" viewBox="0 0 180 40" fill="none" xmlns="http://www.w3.org/2000/svg">
<mask id="path-1-inside-1" fill="white">
<path d="M0 16.1C0 10.4051 0 7.55764 1.12587 5.39026C2.07462 3.56382 3.56382 2.07462 5.39026 1.12587C7.55764 0 10.4051 0 16.1 0H163.9C169.595 0 172.442 0 174.61 1.12587C176.436 2.07462 177.925 3.56382 178.874 5.39026C180 7.55764 180 10.4051 180 16.1V23.9C180 29.5949 180 32.4424 178.874 34.6097C177.925 36.4362 176.436 37.9254 174.61 38.8741C172.442 40 169.595 40 163.9 40H16.1C10.4051 40 7.55764 40 5.39026 38.8741C3.56382 37.9254 2.07462 36.4362 1.12587 34.6097C0 32.4424 0 29.5949 0 23.9V16.1Z"/>
</mask>
<path d="M5.39026 38.8741L6.08172 37.543L5.39026 38.8741ZM1.12587 34.6097L2.45699 33.9183L1.12587 34.6097ZM178.874 34.6097L177.543 33.9183L178.874 34.6097ZM174.61 38.8741L173.918 37.543L174.61 38.8741ZM174.61 1.12587L173.918 2.45699L174.61 1.12587ZM178.874 5.39026L177.543 6.08172L178.874 5.39026ZM5.39026 1.12587L6.08172 2.45699L5.39026 1.12587ZM1.12587 5.39026L2.45699 6.08172L1.12587 5.39026ZM16.1 1.5H163.9V-1.5H16.1V1.5ZM178.5 16.1V23.9H181.5V16.1H178.5ZM163.9 38.5H16.1V41.5H163.9V38.5ZM1.5 23.9V16.1H-1.5V23.9H1.5ZM16.1 38.5C13.2274 38.5 11.1646 38.4988 9.54645 38.3644C7.94623 38.2315 6.91562 37.9762 6.08172 37.543L4.69879 40.2053C6.03228 40.8979 7.50908 41.2055 9.29817 41.3541C11.0693 41.5012 13.2777 41.5 16.1 41.5V38.5ZM-1.5 23.9C-1.5 26.7223 -1.50121 28.9307 -1.35412 30.7018C-1.20555 32.4909 -0.897944 33.9677 -0.205255 35.3012L2.45699 33.9183C2.02381 33.0844 1.76848 32.0538 1.63559 30.4536C1.50121 28.8354 1.5 26.7726 1.5 23.9H-1.5ZM6.08172 37.543C4.52925 36.7366 3.26343 35.4708 2.45699 33.9183L-0.205255 35.3012C0.885814 37.4016 2.5984 39.1142 4.69879 40.2053L6.08172 37.543ZM178.5 23.9C178.5 26.7726 178.499 28.8354 178.364 30.4536C178.232 32.0538 177.976 33.0844 177.543 33.9183L180.205 35.3012C180.898 33.9677 181.206 32.4909 181.354 30.7018C181.501 28.9307 181.5 26.7223 181.5 23.9H178.5ZM163.9 41.5C166.722 41.5 168.931 41.5012 170.702 41.3541C172.491 41.2055 173.968 40.8979 175.301 40.2053L173.918 37.543C173.084 37.9762 172.054 38.2315 170.454 38.3644C168.835 38.4988 166.773 38.5 163.9 38.5V41.5ZM177.543 33.9183C176.737 35.4708 175.471 36.7366 173.918 37.543L175.301 40.2053C177.402 39.1142 179.114 37.4016 180.205 35.3012L177.543 33.9183ZM163.9 1.5C166.773 1.5 168.835 1.50121 170.454 1.63559C172.054 1.76848 173.084 2.02381 173.918 2.45699L175.301 -0.205255C173.968 -0.897944 172.491 -1.20555 170.702 -1.35412C168.931 -1.50121 166.722 -1.5 163.9 -1.5V1.5ZM181.5 16.1C181.5 13.2777 181.501 11.0693 181.354 9.29816C181.206 7.50908 180.898 6.03228 180.205 4.69879L177.543 6.08172C177.976 6.91562 178.232 7.94623 178.364 9.54645C178.499 11.1646 178.5 13.2274 178.5 16.1H181.5ZM173.918 2.45699C175.471 3.26343 176.737 4.52925 177.543 6.08172L180.205 4.69879C179.114 2.5984 177.402 0.885814 175.301 -0.205255L173.918 2.45699ZM16.1 -1.5C13.2777 -1.5 11.0693 -1.50121 9.29817 -1.35412C7.50908 -1.20555 6.03228 -0.897944 4.69879 -0.205255L6.08172 2.45699C6.91562 2.02381 7.94623 1.76848 9.54645 1.63559C11.1646 1.50121 13.2274 1.5 16.1 1.5V-1.5ZM1.5 16.1C1.5 13.2274 1.50121 11.1646 1.63559 9.54645C1.76848 7.94623 2.02381 6.91562 2.45699 6.08172L-0.205255 4.69879C-0.897944 6.03228 -1.20555 7.50908 -1.35412 9.29817C-1.50121 11.0693 -1.5 13.2777 -1.5 16.1H1.5ZM4.69879 -0.205255C2.5984 0.885814 0.885814 2.5984 -0.205255 4.69879L2.45699 6.08172C3.26343 4.52925 4.52925 3.26343 6.08172 2.45699L4.69879 -0.205255Z" fill="#2F80ED" mask="url(#path-1-inside-1)"/>
</svg>
