<svg width="180" height="40" viewBox="0 0 180 40" fill="none" xmlns="http://www.w3.org/2000/svg">
<path d="M0 16.1C0 10.4051 0 7.55764 1.12587 5.39026C2.07462 3.56382 3.56382 2.07462 5.39026 1.12587C7.55764 0 10.4051 0 16.1 0H163.9C169.595 0 172.442 0 174.61 1.12587C176.436 2.07462 177.925 3.56382 178.874 5.39026C180 7.55764 180 10.4051 180 16.1V23.9C180 29.5949 180 32.4424 178.874 34.6097C177.925 36.4362 176.436 37.9254 174.61 38.8741C172.442 40 169.595 40 163.9 40H16.1C10.4051 40 7.55764 40 5.39026 38.8741C3.56382 37.9254 2.07462 36.4362 1.12587 34.6097C0 32.4424 0 29.5949 0 23.9V16.1Z" fill="#ECF4FF"/>
</svg>
