<svg width="180" height="70" viewBox="0 0 180 70" fill="none" xmlns="http://www.w3.org/2000/svg">
<path d="M0 16.1C0 10.4051 0 7.55764 1.12587 5.39026C2.07462 3.56382 3.56382 2.07462 5.39026 1.12587C7.55764 0 10.4051 0 16.1 0H163.9C169.595 0 172.442 0 174.61 1.12587C176.436 2.07462 177.925 3.56382 178.874 5.39026C180 7.55764 180 10.4051 180 16.1V53.9C180 59.5949 180 62.4424 178.874 64.6097C177.925 66.4362 176.436 67.9254 174.61 68.8741C172.442 70 169.595 70 163.9 70H16.1C10.4051 70 7.55764 70 5.39026 68.8741C3.56382 67.9254 2.07462 66.4362 1.12587 64.6097C0 62.4424 0 59.5949 0 53.9V16.1Z" fill="#2F80ED"/>
</svg>
