<svg width="73" height="72" viewBox="0 0 73 72" fill="none" xmlns="http://www.w3.org/2000/svg">
<path fill-rule="evenodd" clip-rule="evenodd" d="M20.9243 23.4121C20.9243 14.5376 28.1185 7.34351 36.9929 7.34351C45.8673 7.34351 53.0614 14.5376 53.0614 23.4121C53.0614 31.9504 47.8239 35.969 44.3409 37.5309L43.7147 36.1345C46.8377 34.734 51.5311 31.1636 51.5311 23.4121C51.5311 15.3828 45.0221 8.87384 36.9929 8.87384C28.9636 8.87384 22.4547 15.3828 22.4547 23.4121C22.4547 27.3772 24.3991 30.5571 26.4027 32.7795C27.401 33.8867 28.4009 34.7411 29.1506 35.3178C29.5249 35.6058 29.8354 35.8234 30.05 35.9677C30.1573 36.0398 30.2405 36.0935 30.2957 36.1284C30.3232 36.1459 30.3438 36.1587 30.3568 36.1667C30.3633 36.1707 30.3679 36.1735 30.3706 36.1751L30.3731 36.1766C30.3729 36.1765 30.3727 36.1764 29.9793 36.8327C29.5859 37.489 29.5857 37.4889 29.5854 37.4887L29.5846 37.4882L29.5825 37.487L29.576 37.483C29.5708 37.4798 29.5635 37.4754 29.5543 37.4697C29.536 37.4584 29.5099 37.4423 29.4768 37.4213C29.4105 37.3793 29.3156 37.318 29.1962 37.2377C28.9575 37.0773 28.6203 36.8407 28.2175 36.5307C27.4128 35.9117 26.3403 34.9956 25.2661 33.8042C23.1248 31.4291 20.9243 27.8988 20.9243 23.4121Z" fill="#51C7E3"/>
<path fill-rule="evenodd" clip-rule="evenodd" d="M20.3064 7.03914C29.6919 -2.34638 44.9089 -2.34638 54.2944 7.03914C59.0765 11.8212 61.2422 19.1188 61.0813 25.0771C61.0086 27.7724 60.0167 31.8987 57.9326 35.6932C55.2846 40.5142 50.6039 44.0004 47.4537 45.1487L46.9296 43.711C49.7363 42.6878 54.1242 39.448 56.5912 34.9564C58.5675 31.3583 59.4859 27.4687 59.5515 25.0358C59.7035 19.406 57.6381 12.5471 53.2123 8.12125C44.4244 -0.666634 30.1764 -0.666632 21.3885 8.12125C17.2677 12.2421 14.0841 18.0726 14.5819 25.0016C14.8706 29.0217 16.2747 33.3427 18.6154 36.5626C20.956 39.7824 24.0817 41.9573 27.5307 43.751L26.8246 45.1087C23.2679 43.259 19.9125 40.9497 17.3775 37.4624C14.8443 33.9777 13.3615 29.372 13.0555 25.1113C12.5172 17.6184 15.9688 11.3767 20.3064 7.03914Z" fill="#E1B729"/>
<path fill-rule="evenodd" clip-rule="evenodd" d="M30.739 17.158C34.2352 13.6618 39.9036 13.6618 43.3997 17.158C45.1963 18.9546 45.8946 21.6621 45.7206 24.1414C45.5476 26.6066 44.4914 29.0728 42.4941 30.2778L41.7036 28.9674C43.1185 28.1138 44.0409 26.2169 44.194 24.0343C44.3462 21.8658 43.7184 19.6409 42.3176 18.2401C39.4191 15.3416 34.7197 15.3416 31.8211 18.2401C30.399 19.6622 29.7087 21.7662 29.7944 23.8444C29.8801 25.9242 30.7364 27.8668 32.2622 29.0103L31.3444 30.2349C29.3694 28.7547 28.3654 26.3342 28.2653 23.9075C28.1653 21.4791 28.9638 18.9333 30.739 17.158Z" fill="#08295E"/>
<path fill-rule="evenodd" clip-rule="evenodd" d="M34.7389 23.2856L38.5066 23.9499L33.4635 51.9202H29.6898L34.7389 23.2856Z" fill="#08295E"/>
<path fill-rule="evenodd" clip-rule="evenodd" d="M35.5218 23.9036L39.2895 23.2392L44.3386 51.8739H40.5137L35.5218 23.9036Z" fill="#08295E"/>
<path fill-rule="evenodd" clip-rule="evenodd" d="M31.6367 32.1348H42.3491V35.9606H31.6367V32.1348Z" fill="#08295E"/>
<path fill-rule="evenodd" clip-rule="evenodd" d="M29.3412 39.0213H44.6446V42.8471H29.3412V39.0213Z" fill="#08295E"/>
<path fill-rule="evenodd" clip-rule="evenodd" d="M27.0457 45.9078H46.9401V49.7336H27.0457V45.9078Z" fill="#08295E"/>
<path fill-rule="evenodd" clip-rule="evenodd" d="M37.0694 26.9316C38.9711 26.9316 40.5127 25.39 40.5127 23.4883C40.5127 21.5867 38.9711 20.0451 37.0694 20.0451C35.1677 20.0451 33.6261 21.5867 33.6261 23.4883C33.6261 25.39 35.1677 26.9316 37.0694 26.9316Z" fill="#08295E"/>
<path d="M11.7002 64.3359H10.0547V70H8.40918V64.3359H6.74902V62.8809H11.7002V64.3359ZM18.873 62.8809V70H17.2129V67.1484H14.3955V70H12.7305V62.8809H14.3955V65.7129H17.2129V62.8809H18.873ZM22.2617 64.3359V65.7227H24.5371V67.1582H22.2617V68.5352H24.8203V70H20.5918V62.8809H24.8203V64.3359H22.2617ZM31.29 70.0977C30.7725 70.0977 30.3005 70.0163 29.874 69.8535C29.4476 69.6875 29.0977 69.445 28.8242 69.126C28.5508 68.807 28.3799 68.4229 28.3115 67.9736L30.0352 67.5781C30.071 67.959 30.2077 68.2503 30.4453 68.4521C30.6862 68.654 30.9922 68.7549 31.3633 68.7549C31.6432 68.7549 31.8662 68.6914 32.0322 68.5645C32.1982 68.4375 32.2796 68.252 32.2764 68.0078C32.2764 67.8255 32.2129 67.6742 32.0859 67.5537C31.9622 67.43 31.806 67.3291 31.6172 67.251C31.4284 67.1696 31.1615 67.0752 30.8164 66.9678C30.8001 66.9645 30.7839 66.9596 30.7676 66.9531C30.7513 66.9466 30.7318 66.9401 30.709 66.9336C30.263 66.7904 29.8952 66.6471 29.6055 66.5039C29.3158 66.3574 29.07 66.154 28.8682 65.8936C28.6696 65.6331 28.5703 65.2995 28.5703 64.8926C28.5703 64.4596 28.6794 64.0837 28.8975 63.7646C29.1156 63.4456 29.4183 63.2031 29.8057 63.0371C30.193 62.8678 30.6341 62.7832 31.1289 62.7832C31.5749 62.7832 31.9948 62.8483 32.3887 62.9785C32.7858 63.1055 33.126 63.3122 33.4092 63.5986C33.6956 63.8851 33.8861 64.2529 33.9805 64.7021L32.3789 65.0977C32.2682 64.4499 31.8857 64.126 31.2314 64.126C30.9417 64.126 30.7057 64.1878 30.5234 64.3115C30.3411 64.432 30.25 64.611 30.25 64.8486C30.25 64.9854 30.3037 65.1025 30.4111 65.2002C30.5218 65.2979 30.6618 65.3809 30.8311 65.4492C31.0003 65.5143 31.2347 65.5924 31.5342 65.6836L31.6904 65.7324C32.1527 65.8757 32.5417 66.0254 32.8574 66.1816C33.1732 66.3346 33.4417 66.5527 33.6631 66.8359C33.8877 67.1159 34 67.4756 34 67.915C34 68.4066 33.8763 68.8167 33.6289 69.1455C33.3815 69.471 33.0527 69.7119 32.6426 69.8682C32.2357 70.0212 31.7848 70.0977 31.29 70.0977ZM35.25 62.8809H36.915V70H35.25V62.8809ZM41.7246 70.0977C41.0378 70.0977 40.4225 69.9479 39.8789 69.6484C39.3385 69.3457 38.9154 68.9193 38.6094 68.3691C38.3034 67.819 38.1504 67.1826 38.1504 66.46C38.1504 65.7275 38.3066 65.083 38.6191 64.5264C38.9349 63.9697 39.3711 63.54 39.9277 63.2373C40.4844 62.9346 41.1143 62.7832 41.8174 62.7832C42.514 62.7832 43.1374 62.9313 43.6875 63.2275C44.2409 63.5205 44.6738 63.9323 44.9863 64.4629L43.5264 65.2393C43.3571 64.9007 43.126 64.6452 42.833 64.4727C42.54 64.3001 42.2015 64.2139 41.8174 64.2139C41.4333 64.2139 41.0898 64.3018 40.7871 64.4775C40.4844 64.6501 40.2467 64.9023 40.0742 65.2344C39.9017 65.5632 39.8154 65.957 39.8154 66.416C39.8154 66.862 39.8984 67.2559 40.0645 67.5977C40.2305 67.9362 40.4681 68.1999 40.7773 68.3887C41.0898 68.5742 41.4577 68.667 41.8809 68.667C42.1608 68.667 42.4245 68.623 42.6719 68.5352C42.9193 68.444 43.1325 68.3024 43.3115 68.1104C43.4938 67.9183 43.6191 67.6758 43.6875 67.3828H41.8857V66.0596H45.25V70H43.9561V69.126C43.7217 69.4385 43.4189 69.6794 43.0479 69.8486C42.6768 70.0146 42.2357 70.0977 41.7246 70.0977ZM53.2236 62.8809V70H51.2705L48.3359 65.1367V70H46.6758V62.8809H48.6094L51.5635 67.71V62.8809H53.2236ZM59.2783 68.6084H56.3633L55.875 70H54.1807L56.7979 62.8809H58.8438L61.4609 70H59.7666L59.2783 68.6084ZM58.7949 67.2266L57.8232 64.4385L56.8467 67.2266H58.7949ZM66.2412 68.5352V70H62.418V62.8809H64.083V68.5352H66.2412Z" fill="black"/>
</svg>
